<?xml version="1.0" encoding="utf-8" standalone="no"?>
<!DOCTYPE svg PUBLIC "-//W3C//DTD SVG 1.1//EN"
  "http://www.w3.org/Graphics/SVG/1.1/DTD/svg11.dtd">
<svg height="288pt" version="1.1" viewBox="0 0 432 288" width="432pt" xmlns="http://www.w3.org/2000/svg" xmlns:xlink="http://www.w3.org/1999/xlink">
 <metadata>
  <rdf:RDF xmlns:cc="http://creativecommons.org/ns#" xmlns:dc="http://purl.org/dc/elements/1.1/" xmlns:rdf="http://www.w3.org/1999/02/22-rdf-syntax-ns#">
   <cc:Work>
    <dc:type rdf:resource="http://purl.org/dc/dcmitype/StillImage"/>
    <dc:date>2021-12-04T21:13:04.337331</dc:date>
    <dc:format>image/svg+xml</dc:format>
    <dc:creator>
     <cc:Agent>
      <dc:title>Matplotlib v3.4.3, https://matplotlib.org/</dc:title>
     </cc:Agent>
    </dc:creator>
   </cc:Work>
  </rdf:RDF>
 </metadata>
 <defs>
  <style type="text/css">*{stroke-linecap:butt;stroke-linejoin:round;}</style>
 </defs>
 <g id="figure_1">
  <g id="patch_1">
   <path d="M 0 288 
L 432 288 
L 432 0 
L 0 0 
z
" style="fill:#ffffff;"/>
  </g>
  <g id="axes_1">
   <g id="patch_2">
    <path d="M 55.8 223.2 
L 421.2 223.2 
L 421.2 10.8 
L 55.8 10.8 
z
" style="fill:#e5e5e5;"/>
   </g>
   <g id="matplotlib.axis_1">
    <g id="xtick_1">
     <g id="line2d_1">
      <defs>
       <path d="M 0 0 
L 0 3.5 
" id="m4a8a39d9a0" style="stroke:#555555;stroke-width:0.8;"/>
      </defs>
      <g>
       <use style="fill:#555555;stroke:#555555;stroke-width:0.8;" x="86.25" xlink:href="#m4a8a39d9a0" y="223.2"/>
      </g>
     </g>
     <g id="text_1">
      <!-- Smart -->
      <g style="fill:#555555;" transform="translate(68.100938 239.318125)scale(0.12 -0.12)">
       <defs>
        <path d="M 3425 4513 
L 3425 3897 
Q 3066 4069 2747 4153 
Q 2428 4238 2131 4238 
Q 1616 4238 1336 4038 
Q 1056 3838 1056 3469 
Q 1056 3159 1242 3001 
Q 1428 2844 1947 2747 
L 2328 2669 
Q 3034 2534 3370 2195 
Q 3706 1856 3706 1288 
Q 3706 609 3251 259 
Q 2797 -91 1919 -91 
Q 1588 -91 1214 -16 
Q 841 59 441 206 
L 441 856 
Q 825 641 1194 531 
Q 1563 422 1919 422 
Q 2459 422 2753 634 
Q 3047 847 3047 1241 
Q 3047 1584 2836 1778 
Q 2625 1972 2144 2069 
L 1759 2144 
Q 1053 2284 737 2584 
Q 422 2884 422 3419 
Q 422 4038 858 4394 
Q 1294 4750 2059 4750 
Q 2388 4750 2728 4690 
Q 3069 4631 3425 4513 
z
" id="DejaVuSans-53" transform="scale(0.015625)"/>
        <path d="M 3328 2828 
Q 3544 3216 3844 3400 
Q 4144 3584 4550 3584 
Q 5097 3584 5394 3201 
Q 5691 2819 5691 2113 
L 5691 0 
L 5113 0 
L 5113 2094 
Q 5113 2597 4934 2840 
Q 4756 3084 4391 3084 
Q 3944 3084 3684 2787 
Q 3425 2491 3425 1978 
L 3425 0 
L 2847 0 
L 2847 2094 
Q 2847 2600 2669 2842 
Q 2491 3084 2119 3084 
Q 1678 3084 1418 2786 
Q 1159 2488 1159 1978 
L 1159 0 
L 581 0 
L 581 3500 
L 1159 3500 
L 1159 2956 
Q 1356 3278 1631 3431 
Q 1906 3584 2284 3584 
Q 2666 3584 2933 3390 
Q 3200 3197 3328 2828 
z
" id="DejaVuSans-6d" transform="scale(0.015625)"/>
        <path d="M 2194 1759 
Q 1497 1759 1228 1600 
Q 959 1441 959 1056 
Q 959 750 1161 570 
Q 1363 391 1709 391 
Q 2188 391 2477 730 
Q 2766 1069 2766 1631 
L 2766 1759 
L 2194 1759 
z
M 3341 1997 
L 3341 0 
L 2766 0 
L 2766 531 
Q 2569 213 2275 61 
Q 1981 -91 1556 -91 
Q 1019 -91 701 211 
Q 384 513 384 1019 
Q 384 1609 779 1909 
Q 1175 2209 1959 2209 
L 2766 2209 
L 2766 2266 
Q 2766 2663 2505 2880 
Q 2244 3097 1772 3097 
Q 1472 3097 1187 3025 
Q 903 2953 641 2809 
L 641 3341 
Q 956 3463 1253 3523 
Q 1550 3584 1831 3584 
Q 2591 3584 2966 3190 
Q 3341 2797 3341 1997 
z
" id="DejaVuSans-61" transform="scale(0.015625)"/>
        <path d="M 2631 2963 
Q 2534 3019 2420 3045 
Q 2306 3072 2169 3072 
Q 1681 3072 1420 2755 
Q 1159 2438 1159 1844 
L 1159 0 
L 581 0 
L 581 3500 
L 1159 3500 
L 1159 2956 
Q 1341 3275 1631 3429 
Q 1922 3584 2338 3584 
Q 2397 3584 2469 3576 
Q 2541 3569 2628 3553 
L 2631 2963 
z
" id="DejaVuSans-72" transform="scale(0.015625)"/>
        <path d="M 1172 4494 
L 1172 3500 
L 2356 3500 
L 2356 3053 
L 1172 3053 
L 1172 1153 
Q 1172 725 1289 603 
Q 1406 481 1766 481 
L 2356 481 
L 2356 0 
L 1766 0 
Q 1100 0 847 248 
Q 594 497 594 1153 
L 594 3053 
L 172 3053 
L 172 3500 
L 594 3500 
L 594 4494 
L 1172 4494 
z
" id="DejaVuSans-74" transform="scale(0.015625)"/>
       </defs>
       <use xlink:href="#DejaVuSans-53"/>
       <use x="63.476562" xlink:href="#DejaVuSans-6d"/>
       <use x="160.888672" xlink:href="#DejaVuSans-61"/>
       <use x="222.167969" xlink:href="#DejaVuSans-72"/>
       <use x="263.28125" xlink:href="#DejaVuSans-74"/>
      </g>
      <!-- Away % -->
      <g style="fill:#555555;" transform="translate(62.642813 252.7555)scale(0.12 -0.12)">
       <defs>
        <path d="M 2188 4044 
L 1331 1722 
L 3047 1722 
L 2188 4044 
z
M 1831 4666 
L 2547 4666 
L 4325 0 
L 3669 0 
L 3244 1197 
L 1141 1197 
L 716 0 
L 50 0 
L 1831 4666 
z
" id="DejaVuSans-41" transform="scale(0.015625)"/>
        <path d="M 269 3500 
L 844 3500 
L 1563 769 
L 2278 3500 
L 2956 3500 
L 3675 769 
L 4391 3500 
L 4966 3500 
L 4050 0 
L 3372 0 
L 2619 2869 
L 1863 0 
L 1184 0 
L 269 3500 
z
" id="DejaVuSans-77" transform="scale(0.015625)"/>
        <path d="M 2059 -325 
Q 1816 -950 1584 -1140 
Q 1353 -1331 966 -1331 
L 506 -1331 
L 506 -850 
L 844 -850 
Q 1081 -850 1212 -737 
Q 1344 -625 1503 -206 
L 1606 56 
L 191 3500 
L 800 3500 
L 1894 763 
L 2988 3500 
L 3597 3500 
L 2059 -325 
z
" id="DejaVuSans-79" transform="scale(0.015625)"/>
        <path id="DejaVuSans-20" transform="scale(0.015625)"/>
        <path d="M 4653 2053 
Q 4381 2053 4226 1822 
Q 4072 1591 4072 1178 
Q 4072 772 4226 539 
Q 4381 306 4653 306 
Q 4919 306 5073 539 
Q 5228 772 5228 1178 
Q 5228 1588 5073 1820 
Q 4919 2053 4653 2053 
z
M 4653 2450 
Q 5147 2450 5437 2106 
Q 5728 1763 5728 1178 
Q 5728 594 5436 251 
Q 5144 -91 4653 -91 
Q 4153 -91 3862 251 
Q 3572 594 3572 1178 
Q 3572 1766 3864 2108 
Q 4156 2450 4653 2450 
z
M 1428 4353 
Q 1159 4353 1004 4120 
Q 850 3888 850 3481 
Q 850 3069 1003 2837 
Q 1156 2606 1428 2606 
Q 1700 2606 1854 2837 
Q 2009 3069 2009 3481 
Q 2009 3884 1853 4118 
Q 1697 4353 1428 4353 
z
M 4250 4750 
L 4750 4750 
L 1831 -91 
L 1331 -91 
L 4250 4750 
z
M 1428 4750 
Q 1922 4750 2215 4408 
Q 2509 4066 2509 3481 
Q 2509 2891 2217 2550 
Q 1925 2209 1428 2209 
Q 931 2209 642 2551 
Q 353 2894 353 3481 
Q 353 4063 643 4406 
Q 934 4750 1428 4750 
z
" id="DejaVuSans-25" transform="scale(0.015625)"/>
       </defs>
       <use xlink:href="#DejaVuSans-41"/>
       <use x="64.408203" xlink:href="#DejaVuSans-77"/>
       <use x="146.195312" xlink:href="#DejaVuSans-61"/>
       <use x="207.474609" xlink:href="#DejaVuSans-79"/>
       <use x="266.654297" xlink:href="#DejaVuSans-20"/>
       <use x="298.441406" xlink:href="#DejaVuSans-25"/>
      </g>
     </g>
    </g>
    <g id="xtick_2">
     <g id="line2d_2">
      <g>
       <use style="fill:#555555;stroke:#555555;stroke-width:0.8;" x="147.15" xlink:href="#m4a8a39d9a0" y="223.2"/>
      </g>
     </g>
     <g id="text_2">
      <!-- Smart -->
      <g style="fill:#555555;" transform="translate(129.000937 239.318125)scale(0.12 -0.12)">
       <use xlink:href="#DejaVuSans-53"/>
       <use x="63.476562" xlink:href="#DejaVuSans-6d"/>
       <use x="160.888672" xlink:href="#DejaVuSans-61"/>
       <use x="222.167969" xlink:href="#DejaVuSans-72"/>
       <use x="263.28125" xlink:href="#DejaVuSans-74"/>
      </g>
      <!-- Home % -->
      <g style="fill:#555555;" transform="translate(121.8225 252.7555)scale(0.12 -0.12)">
       <defs>
        <path d="M 628 4666 
L 1259 4666 
L 1259 2753 
L 3553 2753 
L 3553 4666 
L 4184 4666 
L 4184 0 
L 3553 0 
L 3553 2222 
L 1259 2222 
L 1259 0 
L 628 0 
L 628 4666 
z
" id="DejaVuSans-48" transform="scale(0.015625)"/>
        <path d="M 1959 3097 
Q 1497 3097 1228 2736 
Q 959 2375 959 1747 
Q 959 1119 1226 758 
Q 1494 397 1959 397 
Q 2419 397 2687 759 
Q 2956 1122 2956 1747 
Q 2956 2369 2687 2733 
Q 2419 3097 1959 3097 
z
M 1959 3584 
Q 2709 3584 3137 3096 
Q 3566 2609 3566 1747 
Q 3566 888 3137 398 
Q 2709 -91 1959 -91 
Q 1206 -91 779 398 
Q 353 888 353 1747 
Q 353 2609 779 3096 
Q 1206 3584 1959 3584 
z
" id="DejaVuSans-6f" transform="scale(0.015625)"/>
        <path d="M 3597 1894 
L 3597 1613 
L 953 1613 
Q 991 1019 1311 708 
Q 1631 397 2203 397 
Q 2534 397 2845 478 
Q 3156 559 3463 722 
L 3463 178 
Q 3153 47 2828 -22 
Q 2503 -91 2169 -91 
Q 1331 -91 842 396 
Q 353 884 353 1716 
Q 353 2575 817 3079 
Q 1281 3584 2069 3584 
Q 2775 3584 3186 3129 
Q 3597 2675 3597 1894 
z
M 3022 2063 
Q 3016 2534 2758 2815 
Q 2500 3097 2075 3097 
Q 1594 3097 1305 2825 
Q 1016 2553 972 2059 
L 3022 2063 
z
" id="DejaVuSans-65" transform="scale(0.015625)"/>
       </defs>
       <use xlink:href="#DejaVuSans-48"/>
       <use x="75.195312" xlink:href="#DejaVuSans-6f"/>
       <use x="136.376953" xlink:href="#DejaVuSans-6d"/>
       <use x="233.789062" xlink:href="#DejaVuSans-65"/>
       <use x="295.3125" xlink:href="#DejaVuSans-20"/>
       <use x="327.099609" xlink:href="#DejaVuSans-25"/>
      </g>
     </g>
    </g>
    <g id="xtick_3">
     <g id="line2d_3">
      <g>
       <use style="fill:#555555;stroke:#555555;stroke-width:0.8;" x="208.05" xlink:href="#m4a8a39d9a0" y="223.2"/>
      </g>
     </g>
     <g id="text_3">
      <!-- DR % -->
      <g style="fill:#555555;" transform="translate(191.653125 239.318125)scale(0.12 -0.12)">
       <defs>
        <path d="M 1259 4147 
L 1259 519 
L 2022 519 
Q 2988 519 3436 956 
Q 3884 1394 3884 2338 
Q 3884 3275 3436 3711 
Q 2988 4147 2022 4147 
L 1259 4147 
z
M 628 4666 
L 1925 4666 
Q 3281 4666 3915 4102 
Q 4550 3538 4550 2338 
Q 4550 1131 3912 565 
Q 3275 0 1925 0 
L 628 0 
L 628 4666 
z
" id="DejaVuSans-44" transform="scale(0.015625)"/>
        <path d="M 2841 2188 
Q 3044 2119 3236 1894 
Q 3428 1669 3622 1275 
L 4263 0 
L 3584 0 
L 2988 1197 
Q 2756 1666 2539 1819 
Q 2322 1972 1947 1972 
L 1259 1972 
L 1259 0 
L 628 0 
L 628 4666 
L 2053 4666 
Q 2853 4666 3247 4331 
Q 3641 3997 3641 3322 
Q 3641 2881 3436 2590 
Q 3231 2300 2841 2188 
z
M 1259 4147 
L 1259 2491 
L 2053 2491 
Q 2509 2491 2742 2702 
Q 2975 2913 2975 3322 
Q 2975 3731 2742 3939 
Q 2509 4147 2053 4147 
L 1259 4147 
z
" id="DejaVuSans-52" transform="scale(0.015625)"/>
       </defs>
       <use xlink:href="#DejaVuSans-44"/>
       <use x="77.001953" xlink:href="#DejaVuSans-52"/>
       <use x="146.484375" xlink:href="#DejaVuSans-20"/>
       <use x="178.271484" xlink:href="#DejaVuSans-25"/>
      </g>
     </g>
    </g>
    <g id="xtick_4">
     <g id="line2d_4">
      <g>
       <use style="fill:#555555;stroke:#555555;stroke-width:0.8;" x="268.95" xlink:href="#m4a8a39d9a0" y="223.2"/>
      </g>
     </g>
     <g id="text_4">
      <!-- Hold % -->
      <g style="fill:#555555;" transform="translate(247.682812 239.318125)scale(0.12 -0.12)">
       <defs>
        <path d="M 603 4863 
L 1178 4863 
L 1178 0 
L 603 0 
L 603 4863 
z
" id="DejaVuSans-6c" transform="scale(0.015625)"/>
        <path d="M 2906 2969 
L 2906 4863 
L 3481 4863 
L 3481 0 
L 2906 0 
L 2906 525 
Q 2725 213 2448 61 
Q 2172 -91 1784 -91 
Q 1150 -91 751 415 
Q 353 922 353 1747 
Q 353 2572 751 3078 
Q 1150 3584 1784 3584 
Q 2172 3584 2448 3432 
Q 2725 3281 2906 2969 
z
M 947 1747 
Q 947 1113 1208 752 
Q 1469 391 1925 391 
Q 2381 391 2643 752 
Q 2906 1113 2906 1747 
Q 2906 2381 2643 2742 
Q 2381 3103 1925 3103 
Q 1469 3103 1208 2742 
Q 947 2381 947 1747 
z
" id="DejaVuSans-64" transform="scale(0.015625)"/>
       </defs>
       <use xlink:href="#DejaVuSans-48"/>
       <use x="75.195312" xlink:href="#DejaVuSans-6f"/>
       <use x="136.376953" xlink:href="#DejaVuSans-6c"/>
       <use x="164.160156" xlink:href="#DejaVuSans-64"/>
       <use x="227.636719" xlink:href="#DejaVuSans-20"/>
       <use x="259.423828" xlink:href="#DejaVuSans-25"/>
      </g>
     </g>
    </g>
    <g id="xtick_5">
     <g id="line2d_5">
      <g>
       <use style="fill:#555555;stroke:#555555;stroke-width:0.8;" x="329.85" xlink:href="#m4a8a39d9a0" y="223.2"/>
      </g>
     </g>
     <g id="text_5">
      <!-- TOU -->
      <g style="fill:#555555;" transform="translate(317.070937 239.318125)scale(0.12 -0.12)">
       <defs>
        <path d="M -19 4666 
L 3928 4666 
L 3928 4134 
L 2272 4134 
L 2272 0 
L 1638 0 
L 1638 4134 
L -19 4134 
L -19 4666 
z
" id="DejaVuSans-54" transform="scale(0.015625)"/>
        <path d="M 2522 4238 
Q 1834 4238 1429 3725 
Q 1025 3213 1025 2328 
Q 1025 1447 1429 934 
Q 1834 422 2522 422 
Q 3209 422 3611 934 
Q 4013 1447 4013 2328 
Q 4013 3213 3611 3725 
Q 3209 4238 2522 4238 
z
M 2522 4750 
Q 3503 4750 4090 4092 
Q 4678 3434 4678 2328 
Q 4678 1225 4090 567 
Q 3503 -91 2522 -91 
Q 1538 -91 948 565 
Q 359 1222 359 2328 
Q 359 3434 948 4092 
Q 1538 4750 2522 4750 
z
" id="DejaVuSans-4f" transform="scale(0.015625)"/>
        <path d="M 556 4666 
L 1191 4666 
L 1191 1831 
Q 1191 1081 1462 751 
Q 1734 422 2344 422 
Q 2950 422 3222 751 
Q 3494 1081 3494 1831 
L 3494 4666 
L 4128 4666 
L 4128 1753 
Q 4128 841 3676 375 
Q 3225 -91 2344 -91 
Q 1459 -91 1007 375 
Q 556 841 556 1753 
L 556 4666 
z
" id="DejaVuSans-55" transform="scale(0.015625)"/>
       </defs>
       <use xlink:href="#DejaVuSans-54"/>
       <use x="61.083984" xlink:href="#DejaVuSans-4f"/>
       <use x="139.794922" xlink:href="#DejaVuSans-55"/>
      </g>
      <!-- Event % -->
      <g style="fill:#555555;" transform="translate(305.053125 252.7555)scale(0.12 -0.12)">
       <defs>
        <path d="M 628 4666 
L 3578 4666 
L 3578 4134 
L 1259 4134 
L 1259 2753 
L 3481 2753 
L 3481 2222 
L 1259 2222 
L 1259 531 
L 3634 531 
L 3634 0 
L 628 0 
L 628 4666 
z
" id="DejaVuSans-45" transform="scale(0.015625)"/>
        <path d="M 191 3500 
L 800 3500 
L 1894 563 
L 2988 3500 
L 3597 3500 
L 2284 0 
L 1503 0 
L 191 3500 
z
" id="DejaVuSans-76" transform="scale(0.015625)"/>
        <path d="M 3513 2113 
L 3513 0 
L 2938 0 
L 2938 2094 
Q 2938 2591 2744 2837 
Q 2550 3084 2163 3084 
Q 1697 3084 1428 2787 
Q 1159 2491 1159 1978 
L 1159 0 
L 581 0 
L 581 3500 
L 1159 3500 
L 1159 2956 
Q 1366 3272 1645 3428 
Q 1925 3584 2291 3584 
Q 2894 3584 3203 3211 
Q 3513 2838 3513 2113 
z
" id="DejaVuSans-6e" transform="scale(0.015625)"/>
       </defs>
       <use xlink:href="#DejaVuSans-45"/>
       <use x="63.183594" xlink:href="#DejaVuSans-76"/>
       <use x="122.363281" xlink:href="#DejaVuSans-65"/>
       <use x="183.886719" xlink:href="#DejaVuSans-6e"/>
       <use x="247.265625" xlink:href="#DejaVuSans-74"/>
       <use x="286.474609" xlink:href="#DejaVuSans-20"/>
       <use x="318.261719" xlink:href="#DejaVuSans-25"/>
      </g>
     </g>
    </g>
    <g id="xtick_6">
     <g id="line2d_6">
      <g>
       <use style="fill:#555555;stroke:#555555;stroke-width:0.8;" x="390.75" xlink:href="#m4a8a39d9a0" y="223.2"/>
      </g>
     </g>
     <g id="text_6">
      <!-- Custom -->
      <g style="fill:#555555;" transform="translate(367.764375 239.318125)scale(0.12 -0.12)">
       <defs>
        <path d="M 4122 4306 
L 4122 3641 
Q 3803 3938 3442 4084 
Q 3081 4231 2675 4231 
Q 1875 4231 1450 3742 
Q 1025 3253 1025 2328 
Q 1025 1406 1450 917 
Q 1875 428 2675 428 
Q 3081 428 3442 575 
Q 3803 722 4122 1019 
L 4122 359 
Q 3791 134 3420 21 
Q 3050 -91 2638 -91 
Q 1578 -91 968 557 
Q 359 1206 359 2328 
Q 359 3453 968 4101 
Q 1578 4750 2638 4750 
Q 3056 4750 3426 4639 
Q 3797 4528 4122 4306 
z
" id="DejaVuSans-43" transform="scale(0.015625)"/>
        <path d="M 544 1381 
L 544 3500 
L 1119 3500 
L 1119 1403 
Q 1119 906 1312 657 
Q 1506 409 1894 409 
Q 2359 409 2629 706 
Q 2900 1003 2900 1516 
L 2900 3500 
L 3475 3500 
L 3475 0 
L 2900 0 
L 2900 538 
Q 2691 219 2414 64 
Q 2138 -91 1772 -91 
Q 1169 -91 856 284 
Q 544 659 544 1381 
z
M 1991 3584 
L 1991 3584 
z
" id="DejaVuSans-75" transform="scale(0.015625)"/>
        <path d="M 2834 3397 
L 2834 2853 
Q 2591 2978 2328 3040 
Q 2066 3103 1784 3103 
Q 1356 3103 1142 2972 
Q 928 2841 928 2578 
Q 928 2378 1081 2264 
Q 1234 2150 1697 2047 
L 1894 2003 
Q 2506 1872 2764 1633 
Q 3022 1394 3022 966 
Q 3022 478 2636 193 
Q 2250 -91 1575 -91 
Q 1294 -91 989 -36 
Q 684 19 347 128 
L 347 722 
Q 666 556 975 473 
Q 1284 391 1588 391 
Q 1994 391 2212 530 
Q 2431 669 2431 922 
Q 2431 1156 2273 1281 
Q 2116 1406 1581 1522 
L 1381 1569 
Q 847 1681 609 1914 
Q 372 2147 372 2553 
Q 372 3047 722 3315 
Q 1072 3584 1716 3584 
Q 2034 3584 2315 3537 
Q 2597 3491 2834 3397 
z
" id="DejaVuSans-73" transform="scale(0.015625)"/>
       </defs>
       <use xlink:href="#DejaVuSans-43"/>
       <use x="69.824219" xlink:href="#DejaVuSans-75"/>
       <use x="133.203125" xlink:href="#DejaVuSans-73"/>
       <use x="185.302734" xlink:href="#DejaVuSans-74"/>
       <use x="224.511719" xlink:href="#DejaVuSans-6f"/>
       <use x="285.693359" xlink:href="#DejaVuSans-6d"/>
      </g>
      <!-- Event % -->
      <g style="fill:#555555;" transform="translate(365.953125 252.7555)scale(0.12 -0.12)">
       <use xlink:href="#DejaVuSans-45"/>
       <use x="63.183594" xlink:href="#DejaVuSans-76"/>
       <use x="122.363281" xlink:href="#DejaVuSans-65"/>
       <use x="183.886719" xlink:href="#DejaVuSans-6e"/>
       <use x="247.265625" xlink:href="#DejaVuSans-74"/>
       <use x="286.474609" xlink:href="#DejaVuSans-20"/>
       <use x="318.261719" xlink:href="#DejaVuSans-25"/>
      </g>
     </g>
    </g>
    <g id="text_7">
     <!-- Thermostat Mode -->
     <g style="fill:#555555;" transform="translate(168.10125 271.408625)scale(0.16 -0.16)">
      <defs>
       <path d="M 3513 2113 
L 3513 0 
L 2938 0 
L 2938 2094 
Q 2938 2591 2744 2837 
Q 2550 3084 2163 3084 
Q 1697 3084 1428 2787 
Q 1159 2491 1159 1978 
L 1159 0 
L 581 0 
L 581 4863 
L 1159 4863 
L 1159 2956 
Q 1366 3272 1645 3428 
Q 1925 3584 2291 3584 
Q 2894 3584 3203 3211 
Q 3513 2838 3513 2113 
z
" id="DejaVuSans-68" transform="scale(0.015625)"/>
       <path d="M 628 4666 
L 1569 4666 
L 2759 1491 
L 3956 4666 
L 4897 4666 
L 4897 0 
L 4281 0 
L 4281 4097 
L 3078 897 
L 2444 897 
L 1241 4097 
L 1241 0 
L 628 0 
L 628 4666 
z
" id="DejaVuSans-4d" transform="scale(0.015625)"/>
      </defs>
      <use xlink:href="#DejaVuSans-54"/>
      <use x="61.083984" xlink:href="#DejaVuSans-68"/>
      <use x="124.462891" xlink:href="#DejaVuSans-65"/>
      <use x="185.986328" xlink:href="#DejaVuSans-72"/>
      <use x="225.349609" xlink:href="#DejaVuSans-6d"/>
      <use x="322.761719" xlink:href="#DejaVuSans-6f"/>
      <use x="383.943359" xlink:href="#DejaVuSans-73"/>
      <use x="436.042969" xlink:href="#DejaVuSans-74"/>
      <use x="475.251953" xlink:href="#DejaVuSans-61"/>
      <use x="536.53125" xlink:href="#DejaVuSans-74"/>
      <use x="575.740234" xlink:href="#DejaVuSans-20"/>
      <use x="607.527344" xlink:href="#DejaVuSans-4d"/>
      <use x="693.806641" xlink:href="#DejaVuSans-6f"/>
      <use x="754.988281" xlink:href="#DejaVuSans-64"/>
      <use x="818.464844" xlink:href="#DejaVuSans-65"/>
     </g>
    </g>
   </g>
   <g id="matplotlib.axis_2">
    <g id="ytick_1">
     <g id="line2d_7">
      <path clip-path="url(#p94ea6e8638)" d="M 55.8 213.545455 
L 421.2 213.545455 
" style="fill:none;stroke:#ffffff;stroke-linecap:square;stroke-width:0.8;"/>
     </g>
     <g id="line2d_8">
      <defs>
       <path d="M 0 0 
L -3.5 0 
" id="m306f59ead2" style="stroke:#555555;stroke-width:0.8;"/>
      </defs>
      <g>
       <use style="fill:#555555;stroke:#555555;stroke-width:0.8;" x="55.8" xlink:href="#m306f59ead2" y="213.545455"/>
      </g>
     </g>
     <g id="text_8">
      <!-- 0.0 -->
      <g style="fill:#555555;" transform="translate(29.71625 218.104517)scale(0.12 -0.12)">
       <defs>
        <path d="M 2034 4250 
Q 1547 4250 1301 3770 
Q 1056 3291 1056 2328 
Q 1056 1369 1301 889 
Q 1547 409 2034 409 
Q 2525 409 2770 889 
Q 3016 1369 3016 2328 
Q 3016 3291 2770 3770 
Q 2525 4250 2034 4250 
z
M 2034 4750 
Q 2819 4750 3233 4129 
Q 3647 3509 3647 2328 
Q 3647 1150 3233 529 
Q 2819 -91 2034 -91 
Q 1250 -91 836 529 
Q 422 1150 422 2328 
Q 422 3509 836 4129 
Q 1250 4750 2034 4750 
z
" id="DejaVuSans-30" transform="scale(0.015625)"/>
        <path d="M 684 794 
L 1344 794 
L 1344 0 
L 684 0 
L 684 794 
z
" id="DejaVuSans-2e" transform="scale(0.015625)"/>
       </defs>
       <use xlink:href="#DejaVuSans-30"/>
       <use x="63.623047" xlink:href="#DejaVuSans-2e"/>
       <use x="95.410156" xlink:href="#DejaVuSans-30"/>
      </g>
     </g>
    </g>
    <g id="ytick_2">
     <g id="line2d_9">
      <path clip-path="url(#p94ea6e8638)" d="M 55.8 174.927273 
L 421.2 174.927273 
" style="fill:none;stroke:#ffffff;stroke-linecap:square;stroke-width:0.8;"/>
     </g>
     <g id="line2d_10">
      <g>
       <use style="fill:#555555;stroke:#555555;stroke-width:0.8;" x="55.8" xlink:href="#m306f59ead2" y="174.927273"/>
      </g>
     </g>
     <g id="text_9">
      <!-- 0.2 -->
      <g style="fill:#555555;" transform="translate(29.71625 179.486335)scale(0.12 -0.12)">
       <defs>
        <path d="M 1228 531 
L 3431 531 
L 3431 0 
L 469 0 
L 469 531 
Q 828 903 1448 1529 
Q 2069 2156 2228 2338 
Q 2531 2678 2651 2914 
Q 2772 3150 2772 3378 
Q 2772 3750 2511 3984 
Q 2250 4219 1831 4219 
Q 1534 4219 1204 4116 
Q 875 4013 500 3803 
L 500 4441 
Q 881 4594 1212 4672 
Q 1544 4750 1819 4750 
Q 2544 4750 2975 4387 
Q 3406 4025 3406 3419 
Q 3406 3131 3298 2873 
Q 3191 2616 2906 2266 
Q 2828 2175 2409 1742 
Q 1991 1309 1228 531 
z
" id="DejaVuSans-32" transform="scale(0.015625)"/>
       </defs>
       <use xlink:href="#DejaVuSans-30"/>
       <use x="63.623047" xlink:href="#DejaVuSans-2e"/>
       <use x="95.410156" xlink:href="#DejaVuSans-32"/>
      </g>
     </g>
    </g>
    <g id="ytick_3">
     <g id="line2d_11">
      <path clip-path="url(#p94ea6e8638)" d="M 55.8 136.309091 
L 421.2 136.309091 
" style="fill:none;stroke:#ffffff;stroke-linecap:square;stroke-width:0.8;"/>
     </g>
     <g id="line2d_12">
      <g>
       <use style="fill:#555555;stroke:#555555;stroke-width:0.8;" x="55.8" xlink:href="#m306f59ead2" y="136.309091"/>
      </g>
     </g>
     <g id="text_10">
      <!-- 0.4 -->
      <g style="fill:#555555;" transform="translate(29.71625 140.868153)scale(0.12 -0.12)">
       <defs>
        <path d="M 2419 4116 
L 825 1625 
L 2419 1625 
L 2419 4116 
z
M 2253 4666 
L 3047 4666 
L 3047 1625 
L 3713 1625 
L 3713 1100 
L 3047 1100 
L 3047 0 
L 2419 0 
L 2419 1100 
L 313 1100 
L 313 1709 
L 2253 4666 
z
" id="DejaVuSans-34" transform="scale(0.015625)"/>
       </defs>
       <use xlink:href="#DejaVuSans-30"/>
       <use x="63.623047" xlink:href="#DejaVuSans-2e"/>
       <use x="95.410156" xlink:href="#DejaVuSans-34"/>
      </g>
     </g>
    </g>
    <g id="ytick_4">
     <g id="line2d_13">
      <path clip-path="url(#p94ea6e8638)" d="M 55.8 97.690909 
L 421.2 97.690909 
" style="fill:none;stroke:#ffffff;stroke-linecap:square;stroke-width:0.8;"/>
     </g>
     <g id="line2d_14">
      <g>
       <use style="fill:#555555;stroke:#555555;stroke-width:0.8;" x="55.8" xlink:href="#m306f59ead2" y="97.690909"/>
      </g>
     </g>
     <g id="text_11">
      <!-- 0.6 -->
      <g style="fill:#555555;" transform="translate(29.71625 102.249972)scale(0.12 -0.12)">
       <defs>
        <path d="M 2113 2584 
Q 1688 2584 1439 2293 
Q 1191 2003 1191 1497 
Q 1191 994 1439 701 
Q 1688 409 2113 409 
Q 2538 409 2786 701 
Q 3034 994 3034 1497 
Q 3034 2003 2786 2293 
Q 2538 2584 2113 2584 
z
M 3366 4563 
L 3366 3988 
Q 3128 4100 2886 4159 
Q 2644 4219 2406 4219 
Q 1781 4219 1451 3797 
Q 1122 3375 1075 2522 
Q 1259 2794 1537 2939 
Q 1816 3084 2150 3084 
Q 2853 3084 3261 2657 
Q 3669 2231 3669 1497 
Q 3669 778 3244 343 
Q 2819 -91 2113 -91 
Q 1303 -91 875 529 
Q 447 1150 447 2328 
Q 447 3434 972 4092 
Q 1497 4750 2381 4750 
Q 2619 4750 2861 4703 
Q 3103 4656 3366 4563 
z
" id="DejaVuSans-36" transform="scale(0.015625)"/>
       </defs>
       <use xlink:href="#DejaVuSans-30"/>
       <use x="63.623047" xlink:href="#DejaVuSans-2e"/>
       <use x="95.410156" xlink:href="#DejaVuSans-36"/>
      </g>
     </g>
    </g>
    <g id="ytick_5">
     <g id="line2d_15">
      <path clip-path="url(#p94ea6e8638)" d="M 55.8 59.072727 
L 421.2 59.072727 
" style="fill:none;stroke:#ffffff;stroke-linecap:square;stroke-width:0.8;"/>
     </g>
     <g id="line2d_16">
      <g>
       <use style="fill:#555555;stroke:#555555;stroke-width:0.8;" x="55.8" xlink:href="#m306f59ead2" y="59.072727"/>
      </g>
     </g>
     <g id="text_12">
      <!-- 0.8 -->
      <g style="fill:#555555;" transform="translate(29.71625 63.63179)scale(0.12 -0.12)">
       <defs>
        <path d="M 2034 2216 
Q 1584 2216 1326 1975 
Q 1069 1734 1069 1313 
Q 1069 891 1326 650 
Q 1584 409 2034 409 
Q 2484 409 2743 651 
Q 3003 894 3003 1313 
Q 3003 1734 2745 1975 
Q 2488 2216 2034 2216 
z
M 1403 2484 
Q 997 2584 770 2862 
Q 544 3141 544 3541 
Q 544 4100 942 4425 
Q 1341 4750 2034 4750 
Q 2731 4750 3128 4425 
Q 3525 4100 3525 3541 
Q 3525 3141 3298 2862 
Q 3072 2584 2669 2484 
Q 3125 2378 3379 2068 
Q 3634 1759 3634 1313 
Q 3634 634 3220 271 
Q 2806 -91 2034 -91 
Q 1263 -91 848 271 
Q 434 634 434 1313 
Q 434 1759 690 2068 
Q 947 2378 1403 2484 
z
M 1172 3481 
Q 1172 3119 1398 2916 
Q 1625 2713 2034 2713 
Q 2441 2713 2670 2916 
Q 2900 3119 2900 3481 
Q 2900 3844 2670 4047 
Q 2441 4250 2034 4250 
Q 1625 4250 1398 4047 
Q 1172 3844 1172 3481 
z
" id="DejaVuSans-38" transform="scale(0.015625)"/>
       </defs>
       <use xlink:href="#DejaVuSans-30"/>
       <use x="63.623047" xlink:href="#DejaVuSans-2e"/>
       <use x="95.410156" xlink:href="#DejaVuSans-38"/>
      </g>
     </g>
    </g>
    <g id="ytick_6">
     <g id="line2d_17">
      <path clip-path="url(#p94ea6e8638)" d="M 55.8 20.454545 
L 421.2 20.454545 
" style="fill:none;stroke:#ffffff;stroke-linecap:square;stroke-width:0.8;"/>
     </g>
     <g id="line2d_18">
      <g>
       <use style="fill:#555555;stroke:#555555;stroke-width:0.8;" x="55.8" xlink:href="#m306f59ead2" y="20.454545"/>
      </g>
     </g>
     <g id="text_13">
      <!-- 1.0 -->
      <g style="fill:#555555;" transform="translate(29.71625 25.013608)scale(0.12 -0.12)">
       <defs>
        <path d="M 794 531 
L 1825 531 
L 1825 4091 
L 703 3866 
L 703 4441 
L 1819 4666 
L 2450 4666 
L 2450 531 
L 3481 531 
L 3481 0 
L 794 0 
L 794 531 
z
" id="DejaVuSans-31" transform="scale(0.015625)"/>
       </defs>
       <use xlink:href="#DejaVuSans-31"/>
       <use x="63.623047" xlink:href="#DejaVuSans-2e"/>
       <use x="95.410156" xlink:href="#DejaVuSans-30"/>
      </g>
     </g>
    </g>
    <g id="text_14">
     <!-- Percentage of Overall Time -->
     <g style="fill:#555555;" transform="translate(22.38875 225.5)rotate(-90)scale(0.16 -0.16)">
      <defs>
       <path d="M 1259 4147 
L 1259 2394 
L 2053 2394 
Q 2494 2394 2734 2622 
Q 2975 2850 2975 3272 
Q 2975 3691 2734 3919 
Q 2494 4147 2053 4147 
L 1259 4147 
z
M 628 4666 
L 2053 4666 
Q 2838 4666 3239 4311 
Q 3641 3956 3641 3272 
Q 3641 2581 3239 2228 
Q 2838 1875 2053 1875 
L 1259 1875 
L 1259 0 
L 628 0 
L 628 4666 
z
" id="DejaVuSans-50" transform="scale(0.015625)"/>
       <path d="M 3122 3366 
L 3122 2828 
Q 2878 2963 2633 3030 
Q 2388 3097 2138 3097 
Q 1578 3097 1268 2742 
Q 959 2388 959 1747 
Q 959 1106 1268 751 
Q 1578 397 2138 397 
Q 2388 397 2633 464 
Q 2878 531 3122 666 
L 3122 134 
Q 2881 22 2623 -34 
Q 2366 -91 2075 -91 
Q 1284 -91 818 406 
Q 353 903 353 1747 
Q 353 2603 823 3093 
Q 1294 3584 2113 3584 
Q 2378 3584 2631 3529 
Q 2884 3475 3122 3366 
z
" id="DejaVuSans-63" transform="scale(0.015625)"/>
       <path d="M 2906 1791 
Q 2906 2416 2648 2759 
Q 2391 3103 1925 3103 
Q 1463 3103 1205 2759 
Q 947 2416 947 1791 
Q 947 1169 1205 825 
Q 1463 481 1925 481 
Q 2391 481 2648 825 
Q 2906 1169 2906 1791 
z
M 3481 434 
Q 3481 -459 3084 -895 
Q 2688 -1331 1869 -1331 
Q 1566 -1331 1297 -1286 
Q 1028 -1241 775 -1147 
L 775 -588 
Q 1028 -725 1275 -790 
Q 1522 -856 1778 -856 
Q 2344 -856 2625 -561 
Q 2906 -266 2906 331 
L 2906 616 
Q 2728 306 2450 153 
Q 2172 0 1784 0 
Q 1141 0 747 490 
Q 353 981 353 1791 
Q 353 2603 747 3093 
Q 1141 3584 1784 3584 
Q 2172 3584 2450 3431 
Q 2728 3278 2906 2969 
L 2906 3500 
L 3481 3500 
L 3481 434 
z
" id="DejaVuSans-67" transform="scale(0.015625)"/>
       <path d="M 2375 4863 
L 2375 4384 
L 1825 4384 
Q 1516 4384 1395 4259 
Q 1275 4134 1275 3809 
L 1275 3500 
L 2222 3500 
L 2222 3053 
L 1275 3053 
L 1275 0 
L 697 0 
L 697 3053 
L 147 3053 
L 147 3500 
L 697 3500 
L 697 3744 
Q 697 4328 969 4595 
Q 1241 4863 1831 4863 
L 2375 4863 
z
" id="DejaVuSans-66" transform="scale(0.015625)"/>
       <path d="M 603 3500 
L 1178 3500 
L 1178 0 
L 603 0 
L 603 3500 
z
M 603 4863 
L 1178 4863 
L 1178 4134 
L 603 4134 
L 603 4863 
z
" id="DejaVuSans-69" transform="scale(0.015625)"/>
      </defs>
      <use xlink:href="#DejaVuSans-50"/>
      <use x="56.677734" xlink:href="#DejaVuSans-65"/>
      <use x="118.201172" xlink:href="#DejaVuSans-72"/>
      <use x="157.064453" xlink:href="#DejaVuSans-63"/>
      <use x="212.044922" xlink:href="#DejaVuSans-65"/>
      <use x="273.568359" xlink:href="#DejaVuSans-6e"/>
      <use x="336.947266" xlink:href="#DejaVuSans-74"/>
      <use x="376.15625" xlink:href="#DejaVuSans-61"/>
      <use x="437.435547" xlink:href="#DejaVuSans-67"/>
      <use x="500.912109" xlink:href="#DejaVuSans-65"/>
      <use x="562.435547" xlink:href="#DejaVuSans-20"/>
      <use x="594.222656" xlink:href="#DejaVuSans-6f"/>
      <use x="655.404297" xlink:href="#DejaVuSans-66"/>
      <use x="690.609375" xlink:href="#DejaVuSans-20"/>
      <use x="722.396484" xlink:href="#DejaVuSans-4f"/>
      <use x="801.107422" xlink:href="#DejaVuSans-76"/>
      <use x="860.287109" xlink:href="#DejaVuSans-65"/>
      <use x="921.810547" xlink:href="#DejaVuSans-72"/>
      <use x="962.923828" xlink:href="#DejaVuSans-61"/>
      <use x="1024.203125" xlink:href="#DejaVuSans-6c"/>
      <use x="1051.986328" xlink:href="#DejaVuSans-6c"/>
      <use x="1079.769531" xlink:href="#DejaVuSans-20"/>
      <use x="1111.556641" xlink:href="#DejaVuSans-54"/>
      <use x="1169.515625" xlink:href="#DejaVuSans-69"/>
      <use x="1197.298828" xlink:href="#DejaVuSans-6d"/>
      <use x="1294.710938" xlink:href="#DejaVuSans-65"/>
     </g>
    </g>
   </g>
   <g id="PolyCollection_1">
    <defs>
     <path d="M 110.61 -74.454545 
L 61.89 -74.454545 
L 69.296374 -75.282296 
L 78.898653 -76.110046 
L 80.983502 -76.937796 
L 81.89959 -77.765547 
L 82.873394 -78.593297 
L 83.440048 -79.421047 
L 83.903935 -80.248797 
L 84.431772 -81.076548 
L 84.664777 -81.904298 
L 84.775359 -82.732048 
L 84.940831 -83.559799 
L 85.160739 -84.387549 
L 85.353351 -85.215299 
L 85.426096 -86.04305 
L 85.498931 -86.8708 
L 85.57606 -87.69855 
L 85.68718 -88.5263 
L 85.793272 -89.354051 
L 85.831534 -90.181801 
L 85.901352 -91.009551 
L 85.914977 -91.837302 
L 85.88926 -92.665052 
L 85.915272 -93.492802 
L 85.944756 -94.320552 
L 85.998411 -95.148303 
L 86.025599 -95.976053 
L 85.978147 -96.803803 
L 86.002426 -97.631554 
L 86.114768 -98.459304 
L 86.141088 -99.287054 
L 86.088586 -100.114804 
L 86.056268 -100.942555 
L 86.095846 -101.770305 
L 86.148315 -102.598055 
L 86.164404 -103.425806 
L 86.161666 -104.253556 
L 86.154692 -105.081306 
L 86.143087 -105.909056 
L 86.159621 -106.736807 
L 86.169944 -107.564557 
L 86.119732 -108.392307 
L 86.137378 -109.220058 
L 86.19818 -110.047808 
L 86.18712 -110.875558 
L 86.160951 -111.703308 
L 86.165678 -112.531059 
L 86.184087 -113.358809 
L 86.195198 -114.186559 
L 86.22575 -115.01431 
L 86.232788 -115.84206 
L 86.214549 -116.66981 
L 86.198038 -117.49756 
L 86.20712 -118.325311 
L 86.236243 -119.153061 
L 86.248251 -119.980811 
L 86.244345 -120.808562 
L 86.221801 -121.636312 
L 86.202029 -122.464062 
L 86.218794 -123.291813 
L 86.242287 -124.119563 
L 86.249368 -124.947313 
L 86.249985 -125.775063 
L 86.25 -126.602814 
L 86.25 -127.430564 
L 86.25 -128.258314 
L 86.25 -129.086065 
L 86.25 -129.913815 
L 86.25 -130.741565 
L 86.25 -131.569315 
L 86.25 -132.397066 
L 86.25 -133.224816 
L 86.25 -134.052566 
L 86.249988 -134.880317 
L 86.249401 -135.708067 
L 86.241356 -136.535817 
L 86.213718 -137.363567 
L 86.201345 -138.191318 
L 86.226716 -139.019068 
L 86.245856 -139.846818 
L 86.24709 -140.674569 
L 86.236393 -141.502319 
L 86.227539 -142.330069 
L 86.227251 -143.157819 
L 86.23445 -143.98557 
L 86.246319 -144.81332 
L 86.249757 -145.64107 
L 86.249996 -146.468821 
L 86.25 -147.296571 
L 86.25 -148.124321 
L 86.25 -148.952071 
L 86.25 -149.779822 
L 86.25 -150.607572 
L 86.25 -151.435322 
L 86.25 -152.263073 
L 86.249999 -153.090823 
L 86.249949 -153.918573 
L 86.24865 -154.746323 
L 86.240378 -155.574074 
L 86.231481 -156.401824 
L 86.268519 -156.401824 
L 86.268519 -156.401824 
L 86.259622 -155.574074 
L 86.25135 -154.746323 
L 86.250051 -153.918573 
L 86.250001 -153.090823 
L 86.25 -152.263073 
L 86.25 -151.435322 
L 86.25 -150.607572 
L 86.25 -149.779822 
L 86.25 -148.952071 
L 86.25 -148.124321 
L 86.25 -147.296571 
L 86.250004 -146.468821 
L 86.250243 -145.64107 
L 86.253681 -144.81332 
L 86.26555 -143.98557 
L 86.272749 -143.157819 
L 86.272461 -142.330069 
L 86.263607 -141.502319 
L 86.25291 -140.674569 
L 86.254144 -139.846818 
L 86.273284 -139.019068 
L 86.298655 -138.191318 
L 86.286282 -137.363567 
L 86.258644 -136.535817 
L 86.250599 -135.708067 
L 86.250012 -134.880317 
L 86.25 -134.052566 
L 86.25 -133.224816 
L 86.25 -132.397066 
L 86.25 -131.569315 
L 86.25 -130.741565 
L 86.25 -129.913815 
L 86.25 -129.086065 
L 86.25 -128.258314 
L 86.25 -127.430564 
L 86.25 -126.602814 
L 86.250015 -125.775063 
L 86.250632 -124.947313 
L 86.257713 -124.119563 
L 86.281206 -123.291813 
L 86.297971 -122.464062 
L 86.278199 -121.636312 
L 86.255655 -120.808562 
L 86.251749 -119.980811 
L 86.263757 -119.153061 
L 86.29288 -118.325311 
L 86.301962 -117.49756 
L 86.285451 -116.66981 
L 86.267212 -115.84206 
L 86.27425 -115.01431 
L 86.304802 -114.186559 
L 86.315913 -113.358809 
L 86.334322 -112.531059 
L 86.339049 -111.703308 
L 86.31288 -110.875558 
L 86.30182 -110.047808 
L 86.362622 -109.220058 
L 86.380268 -108.392307 
L 86.330056 -107.564557 
L 86.340379 -106.736807 
L 86.356913 -105.909056 
L 86.345308 -105.081306 
L 86.338334 -104.253556 
L 86.335596 -103.425806 
L 86.351685 -102.598055 
L 86.404154 -101.770305 
L 86.443732 -100.942555 
L 86.411414 -100.114804 
L 86.358912 -99.287054 
L 86.385232 -98.459304 
L 86.497574 -97.631554 
L 86.521853 -96.803803 
L 86.474401 -95.976053 
L 86.501589 -95.148303 
L 86.555244 -94.320552 
L 86.584728 -93.492802 
L 86.61074 -92.665052 
L 86.585023 -91.837302 
L 86.598648 -91.009551 
L 86.668466 -90.181801 
L 86.706728 -89.354051 
L 86.81282 -88.5263 
L 86.92394 -87.69855 
L 87.001069 -86.8708 
L 87.073904 -86.04305 
L 87.146649 -85.215299 
L 87.339261 -84.387549 
L 87.559169 -83.559799 
L 87.724641 -82.732048 
L 87.835223 -81.904298 
L 88.068228 -81.076548 
L 88.596065 -80.248797 
L 89.059952 -79.421047 
L 89.626606 -78.593297 
L 90.60041 -77.765547 
L 91.516498 -76.937796 
L 93.601347 -76.110046 
L 103.203626 -75.282296 
L 110.61 -74.454545 
z
" id="m56a2ec689b" style="stroke:#474747;stroke-width:1.5;"/>
    </defs>
    <g clip-path="url(#p94ea6e8638)">
     <use style="fill:#cc5a49;stroke:#474747;stroke-width:1.5;" x="0" xlink:href="#m56a2ec689b" y="288"/>
    </g>
   </g>
   <g id="PolyCollection_2">
    <defs>
     <path d="M 171.51 -74.454545 
L 122.79 -74.454545 
L 139.710908 -75.69749 
L 145.568755 -76.940434 
L 145.940928 -78.183379 
L 146.06865 -79.426323 
L 145.966367 -80.669267 
L 146.265395 -81.912212 
L 146.411055 -83.155156 
L 146.412663 -84.398101 
L 146.443868 -85.641045 
L 146.507966 -86.88399 
L 146.571403 -88.126934 
L 146.718453 -89.369878 
L 146.855474 -90.612823 
L 146.915214 -91.855767 
L 146.920606 -93.098712 
L 146.882022 -94.341656 
L 146.903097 -95.5846 
L 146.920075 -96.827545 
L 146.984934 -98.070489 
L 146.952172 -99.313434 
L 147.011839 -100.556378 
L 147.034697 -101.799322 
L 147.006482 -103.042267 
L 147.053327 -104.285211 
L 147.111116 -105.528156 
L 147.096765 -106.7711 
L 147.090389 -108.014044 
L 147.117009 -109.256989 
L 147.117963 -110.499933 
L 147.090108 -111.742878 
L 147.116296 -112.985822 
L 147.106358 -114.228767 
L 147.101656 -115.471711 
L 147.118308 -116.714655 
L 147.146102 -117.9576 
L 147.145148 -119.200544 
L 147.129622 -120.443489 
L 147.107638 -121.686433 
L 147.133935 -122.929377 
L 147.14959 -124.172322 
L 147.149975 -125.415266 
L 147.147621 -126.658211 
L 147.136151 -127.901155 
L 147.143972 -129.144099 
L 147.133124 -130.387044 
L 147.128893 -131.629988 
L 147.147203 -132.872933 
L 147.149972 -134.115877 
L 147.149999 -135.358821 
L 147.149653 -136.601766 
L 147.141754 -137.84471 
L 147.138544 -139.087655 
L 147.14907 -140.330599 
L 147.149996 -141.573544 
L 147.15 -142.816488 
L 147.15 -144.059432 
L 147.15 -145.302377 
L 147.15 -146.545321 
L 147.15 -147.788266 
L 147.15 -149.03121 
L 147.15 -150.274154 
L 147.15 -151.517099 
L 147.15 -152.760043 
L 147.15 -154.002988 
L 147.15 -155.245932 
L 147.15 -156.488876 
L 147.15 -157.731821 
L 147.15 -158.974765 
L 147.15 -160.21771 
L 147.15 -161.460654 
L 147.15 -162.703598 
L 147.15 -163.946543 
L 147.15 -165.189487 
L 147.15 -166.432432 
L 147.15 -167.675376 
L 147.15 -168.91832 
L 147.15 -170.161265 
L 147.15 -171.404209 
L 147.15 -172.647154 
L 147.15 -173.890098 
L 147.15 -175.133043 
L 147.15 -176.375987 
L 147.15 -177.618931 
L 147.15 -178.861876 
L 147.15 -180.10482 
L 147.15 -181.347765 
L 147.15 -182.590709 
L 147.15 -183.833653 
L 147.15 -185.076598 
L 147.15 -186.319542 
L 147.15 -187.562487 
L 147.15 -188.805431 
L 147.15 -190.048375 
L 147.15 -191.29132 
L 147.15 -192.534264 
L 147.15 -193.777209 
L 147.149952 -195.020153 
L 147.146586 -196.263097 
L 147.135872 -197.506042 
L 147.164128 -197.506042 
L 147.164128 -197.506042 
L 147.153414 -196.263097 
L 147.150048 -195.020153 
L 147.15 -193.777209 
L 147.15 -192.534264 
L 147.15 -191.29132 
L 147.15 -190.048375 
L 147.15 -188.805431 
L 147.15 -187.562487 
L 147.15 -186.319542 
L 147.15 -185.076598 
L 147.15 -183.833653 
L 147.15 -182.590709 
L 147.15 -181.347765 
L 147.15 -180.10482 
L 147.15 -178.861876 
L 147.15 -177.618931 
L 147.15 -176.375987 
L 147.15 -175.133043 
L 147.15 -173.890098 
L 147.15 -172.647154 
L 147.15 -171.404209 
L 147.15 -170.161265 
L 147.15 -168.91832 
L 147.15 -167.675376 
L 147.15 -166.432432 
L 147.15 -165.189487 
L 147.15 -163.946543 
L 147.15 -162.703598 
L 147.15 -161.460654 
L 147.15 -160.21771 
L 147.15 -158.974765 
L 147.15 -157.731821 
L 147.15 -156.488876 
L 147.15 -155.245932 
L 147.15 -154.002988 
L 147.15 -152.760043 
L 147.15 -151.517099 
L 147.15 -150.274154 
L 147.15 -149.03121 
L 147.15 -147.788266 
L 147.15 -146.545321 
L 147.15 -145.302377 
L 147.15 -144.059432 
L 147.15 -142.816488 
L 147.150004 -141.573544 
L 147.15093 -140.330599 
L 147.161456 -139.087655 
L 147.158246 -137.84471 
L 147.150347 -136.601766 
L 147.150001 -135.358821 
L 147.150028 -134.115877 
L 147.152797 -132.872933 
L 147.171107 -131.629988 
L 147.166876 -130.387044 
L 147.156028 -129.144099 
L 147.163849 -127.901155 
L 147.152379 -126.658211 
L 147.150025 -125.415266 
L 147.15041 -124.172322 
L 147.166065 -122.929377 
L 147.192362 -121.686433 
L 147.170378 -120.443489 
L 147.154852 -119.200544 
L 147.153898 -117.9576 
L 147.181692 -116.714655 
L 147.198344 -115.471711 
L 147.193642 -114.228767 
L 147.183704 -112.985822 
L 147.209892 -111.742878 
L 147.182037 -110.499933 
L 147.182991 -109.256989 
L 147.209611 -108.014044 
L 147.203235 -106.7711 
L 147.188884 -105.528156 
L 147.246673 -104.285211 
L 147.293518 -103.042267 
L 147.265303 -101.799322 
L 147.288161 -100.556378 
L 147.347828 -99.313434 
L 147.315066 -98.070489 
L 147.379925 -96.827545 
L 147.396903 -95.5846 
L 147.417978 -94.341656 
L 147.379394 -93.098712 
L 147.384786 -91.855767 
L 147.444526 -90.612823 
L 147.581547 -89.369878 
L 147.728597 -88.126934 
L 147.792034 -86.88399 
L 147.856132 -85.641045 
L 147.887337 -84.398101 
L 147.888945 -83.155156 
L 148.034605 -81.912212 
L 148.333633 -80.669267 
L 148.23135 -79.426323 
L 148.359072 -78.183379 
L 148.731245 -76.940434 
L 154.589092 -75.69749 
L 171.51 -74.454545 
z
" id="m4443674aca" style="stroke:#474747;stroke-width:1.5;"/>
    </defs>
    <g clip-path="url(#p94ea6e8638)">
     <use style="fill:#4586ac;stroke:#474747;stroke-width:1.5;" x="0" xlink:href="#m4443674aca" y="288"/>
    </g>
   </g>
   <g id="PolyCollection_3">
    <defs>
     <path d="M 232.41 -74.454545 
L 183.69 -74.454545 
L 195.847224 -74.463813 
L 206.51608 -74.47308 
L 208.001615 -74.482347 
L 208.049614 -74.491615 
L 208.049786 -74.500882 
L 208.045475 -74.510149 
L 208.023458 -74.519417 
L 208.002611 -74.528684 
L 208.006389 -74.537951 
L 207.985529 -74.547219 
L 207.966698 -74.556486 
L 207.964073 -74.565753 
L 207.965646 -74.575021 
L 207.98165 -74.584288 
L 208.0141 -74.593555 
L 208.028046 -74.602822 
L 208.028583 -74.61209 
L 208.03514 -74.621357 
L 208.031391 -74.630624 
L 208.00775 -74.639892 
L 208.001993 -74.649159 
L 208.034738 -74.658426 
L 208.04802 -74.667694 
L 208.042355 -74.676961 
L 208.029479 -74.686228 
L 208.035929 -74.695496 
L 208.047543 -74.704763 
L 208.049789 -74.71403 
L 208.047449 -74.723298 
L 208.032793 -74.732565 
L 208.018645 -74.741832 
L 208.032921 -74.7511 
L 208.037996 -74.760367 
L 208.025524 -74.769634 
L 208.00277 -74.778901 
L 208.004071 -74.788169 
L 208.023439 -74.797436 
L 208.02108 -74.806703 
L 208.017739 -74.815971 
L 208.013683 -74.825238 
L 207.94124 -74.834505 
L 207.785923 -74.843773 
L 207.733596 -74.85304 
L 207.870382 -74.862307 
L 207.940978 -74.871575 
L 207.958615 -74.880842 
L 208.009335 -74.890109 
L 208.033353 -74.899377 
L 208.031822 -74.908644 
L 208.019218 -74.917911 
L 208.027003 -74.927178 
L 208.040332 -74.936446 
L 208.039087 -74.945713 
L 208.044409 -74.95498 
L 208.049266 -74.964248 
L 208.049976 -74.973515 
L 208.05 -74.982782 
L 208.049995 -74.99205 
L 208.049763 -75.001317 
L 208.046952 -75.010584 
L 208.040176 -75.019852 
L 208.042053 -75.029119 
L 208.048387 -75.038386 
L 208.049917 -75.047654 
L 208.049952 -75.056921 
L 208.048871 -75.066188 
L 208.043162 -75.075456 
L 208.039592 -75.084723 
L 208.045456 -75.09399 
L 208.044652 -75.103257 
L 208.039336 -75.112525 
L 208.044267 -75.121792 
L 208.049223 -75.131059 
L 208.049792 -75.140327 
L 208.047389 -75.149594 
L 208.04059 -75.158861 
L 208.041491 -75.168129 
L 208.048069 -75.177396 
L 208.049821 -75.186663 
L 208.048254 -75.195931 
L 208.038314 -75.205198 
L 208.02855 -75.214465 
L 208.034837 -75.223733 
L 208.038066 -75.233 
L 208.0445 -75.242267 
L 208.049299 -75.251534 
L 208.049977 -75.260802 
L 208.05 -75.270069 
L 208.05 -75.279336 
L 208.05 -75.288604 
L 208.05 -75.297871 
L 208.05 -75.307138 
L 208.05 -75.316406 
L 208.05 -75.325673 
L 208.05 -75.33494 
L 208.049979 -75.344208 
L 208.049328 -75.353475 
L 208.044653 -75.362742 
L 208.039325 -75.37201 
L 208.060675 -75.37201 
L 208.060675 -75.37201 
L 208.055347 -75.362742 
L 208.050672 -75.353475 
L 208.050021 -75.344208 
L 208.05 -75.33494 
L 208.05 -75.325673 
L 208.05 -75.316406 
L 208.05 -75.307138 
L 208.05 -75.297871 
L 208.05 -75.288604 
L 208.05 -75.279336 
L 208.05 -75.270069 
L 208.050023 -75.260802 
L 208.050701 -75.251534 
L 208.0555 -75.242267 
L 208.061934 -75.233 
L 208.065163 -75.223733 
L 208.07145 -75.214465 
L 208.061686 -75.205198 
L 208.051746 -75.195931 
L 208.050179 -75.186663 
L 208.051931 -75.177396 
L 208.058509 -75.168129 
L 208.05941 -75.158861 
L 208.052611 -75.149594 
L 208.050208 -75.140327 
L 208.050777 -75.131059 
L 208.055733 -75.121792 
L 208.060664 -75.112525 
L 208.055348 -75.103257 
L 208.054544 -75.09399 
L 208.060408 -75.084723 
L 208.056838 -75.075456 
L 208.051129 -75.066188 
L 208.050048 -75.056921 
L 208.050083 -75.047654 
L 208.051613 -75.038386 
L 208.057947 -75.029119 
L 208.059824 -75.019852 
L 208.053048 -75.010584 
L 208.050237 -75.001317 
L 208.050005 -74.99205 
L 208.05 -74.982782 
L 208.050024 -74.973515 
L 208.050734 -74.964248 
L 208.055591 -74.95498 
L 208.060913 -74.945713 
L 208.059668 -74.936446 
L 208.072997 -74.927178 
L 208.080782 -74.917911 
L 208.068178 -74.908644 
L 208.066647 -74.899377 
L 208.090665 -74.890109 
L 208.141385 -74.880842 
L 208.159022 -74.871575 
L 208.229618 -74.862307 
L 208.366404 -74.85304 
L 208.314077 -74.843773 
L 208.15876 -74.834505 
L 208.086317 -74.825238 
L 208.082261 -74.815971 
L 208.07892 -74.806703 
L 208.076561 -74.797436 
L 208.095929 -74.788169 
L 208.09723 -74.778901 
L 208.074476 -74.769634 
L 208.062004 -74.760367 
L 208.067079 -74.7511 
L 208.081355 -74.741832 
L 208.067207 -74.732565 
L 208.052551 -74.723298 
L 208.050211 -74.71403 
L 208.052457 -74.704763 
L 208.064071 -74.695496 
L 208.070521 -74.686228 
L 208.057645 -74.676961 
L 208.05198 -74.667694 
L 208.065262 -74.658426 
L 208.098007 -74.649159 
L 208.09225 -74.639892 
L 208.068609 -74.630624 
L 208.06486 -74.621357 
L 208.071417 -74.61209 
L 208.071954 -74.602822 
L 208.0859 -74.593555 
L 208.11835 -74.584288 
L 208.134354 -74.575021 
L 208.135927 -74.565753 
L 208.133302 -74.556486 
L 208.114471 -74.547219 
L 208.093611 -74.537951 
L 208.097389 -74.528684 
L 208.076542 -74.519417 
L 208.054525 -74.510149 
L 208.050214 -74.500882 
L 208.050386 -74.491615 
L 208.098385 -74.482347 
L 209.58392 -74.47308 
L 220.252776 -74.463813 
L 232.41 -74.454545 
z
" id="me9cbe59b50" style="stroke:#474747;stroke-width:1.5;"/>
    </defs>
    <g clip-path="url(#p94ea6e8638)">
     <use style="fill:#9e97cc;stroke:#474747;stroke-width:1.5;" x="0" xlink:href="#me9cbe59b50" y="288"/>
    </g>
   </g>
   <g id="PolyCollection_4">
    <defs>
     <path d="M 285.955256 -74.454545 
L 251.944744 -74.454545 
L 248.889014 -76.402968 
L 246.53338 -78.351391 
L 245.086571 -80.299814 
L 244.59 -82.248237 
L 244.934889 -84.19666 
L 245.919487 -86.145083 
L 247.316966 -88.093506 
L 248.927315 -90.04193 
L 250.600982 -91.990353 
L 252.237873 -93.938776 
L 253.774275 -95.887199 
L 255.170254 -97.835622 
L 256.403918 -99.784045 
L 257.47149 -101.732468 
L 258.387724 -103.680891 
L 259.181589 -105.629314 
L 259.886325 -107.577737 
L 260.527735 -109.52616 
L 261.116564 -111.474583 
L 261.648728 -113.423006 
L 262.112693 -115.371429 
L 262.499471 -117.319852 
L 262.809972 -119.268275 
L 263.056765 -121.216698 
L 263.260727 -123.165121 
L 263.44542 -125.113544 
L 263.632124 -127.061967 
L 263.836869 -129.01039 
L 264.069014 -130.958813 
L 264.330333 -132.907236 
L 264.614367 -134.855659 
L 264.90703 -136.804082 
L 265.18956 -138.752505 
L 265.443575 -140.700928 
L 265.656163 -142.649351 
L 265.822368 -144.597774 
L 265.943994 -146.546197 
L 266.026125 -148.49462 
L 266.07422 -150.443043 
L 266.09374 -152.391466 
L 266.09192 -154.339889 
L 266.079311 -156.288312 
L 266.06883 -158.236735 
L 266.071911 -160.185158 
L 266.093605 -162.133581 
L 266.129526 -164.082004 
L 266.166863 -166.030427 
L 266.189559 -167.97885 
L 266.185585 -169.927273 
L 266.152879 -171.875696 
L 266.101028 -173.824119 
L 266.04783 -175.772542 
L 266.012448 -177.720965 
L 266.008493 -179.669388 
L 266.040077 -181.617811 
L 266.10192 -183.566234 
L 266.182474 -185.514657 
L 266.267957 -187.46308 
L 266.345621 -189.411503 
L 266.405748 -191.359926 
L 266.442724 -193.308349 
L 266.45563 -195.256772 
L 266.448389 -197.205195 
L 266.429175 -199.153618 
L 266.408804 -201.102041 
L 266.398125 -203.050464 
L 266.404845 -204.998887 
L 266.430689 -206.94731 
L 266.470133 -208.895733 
L 266.511794 -210.844156 
L 266.542593 -212.792579 
L 266.553202 -214.741002 
L 266.542091 -216.689425 
L 266.515814 -218.637848 
L 266.485154 -220.586271 
L 266.459239 -222.534694 
L 266.440931 -224.483117 
L 266.425793 -226.43154 
L 266.404493 -228.379963 
L 266.366435 -230.328386 
L 266.302112 -232.276809 
L 266.203 -234.225232 
L 266.059526 -236.173655 
L 265.858539 -238.122078 
L 265.581545 -240.070501 
L 265.204441 -242.018924 
L 264.699307 -243.967347 
L 264.039358 -245.91577 
L 263.208511 -247.864193 
L 262.216137 -249.812616 
L 261.114319 -251.761039 
L 260.010182 -253.709462 
L 259.062692 -255.657885 
L 258.455898 -257.606308 
L 258.350635 -259.554731 
L 258.830252 -261.503154 
L 259.864224 -263.451577 
L 261.308983 -265.4 
L 262.948413 -267.348423 
L 274.951587 -267.348423 
L 274.951587 -267.348423 
L 276.591017 -265.4 
L 278.035776 -263.451577 
L 279.069748 -261.503154 
L 279.549365 -259.554731 
L 279.444102 -257.606308 
L 278.837308 -255.657885 
L 277.889818 -253.709462 
L 276.785681 -251.761039 
L 275.683863 -249.812616 
L 274.691489 -247.864193 
L 273.860642 -245.91577 
L 273.200693 -243.967347 
L 272.695559 -242.018924 
L 272.318455 -240.070501 
L 272.041461 -238.122078 
L 271.840474 -236.173655 
L 271.697 -234.225232 
L 271.597888 -232.276809 
L 271.533565 -230.328386 
L 271.495507 -228.379963 
L 271.474207 -226.43154 
L 271.459069 -224.483117 
L 271.440761 -222.534694 
L 271.414846 -220.586271 
L 271.384186 -218.637848 
L 271.357909 -216.689425 
L 271.346798 -214.741002 
L 271.357407 -212.792579 
L 271.388206 -210.844156 
L 271.429867 -208.895733 
L 271.469311 -206.94731 
L 271.495155 -204.998887 
L 271.501875 -203.050464 
L 271.491196 -201.102041 
L 271.470825 -199.153618 
L 271.451611 -197.205195 
L 271.44437 -195.256772 
L 271.457276 -193.308349 
L 271.494252 -191.359926 
L 271.554379 -189.411503 
L 271.632043 -187.46308 
L 271.717526 -185.514657 
L 271.79808 -183.566234 
L 271.859923 -181.617811 
L 271.891507 -179.669388 
L 271.887552 -177.720965 
L 271.85217 -175.772542 
L 271.798972 -173.824119 
L 271.747121 -171.875696 
L 271.714415 -169.927273 
L 271.710441 -167.97885 
L 271.733137 -166.030427 
L 271.770474 -164.082004 
L 271.806395 -162.133581 
L 271.828089 -160.185158 
L 271.83117 -158.236735 
L 271.820689 -156.288312 
L 271.80808 -154.339889 
L 271.80626 -152.391466 
L 271.82578 -150.443043 
L 271.873875 -148.49462 
L 271.956006 -146.546197 
L 272.077632 -144.597774 
L 272.243837 -142.649351 
L 272.456425 -140.700928 
L 272.71044 -138.752505 
L 272.99297 -136.804082 
L 273.285633 -134.855659 
L 273.569667 -132.907236 
L 273.830986 -130.958813 
L 274.063131 -129.01039 
L 274.267876 -127.061967 
L 274.45458 -125.113544 
L 274.639273 -123.165121 
L 274.843235 -121.216698 
L 275.090028 -119.268275 
L 275.400529 -117.319852 
L 275.787307 -115.371429 
L 276.251272 -113.423006 
L 276.783436 -111.474583 
L 277.372265 -109.52616 
L 278.013675 -107.577737 
L 278.718411 -105.629314 
L 279.512276 -103.680891 
L 280.42851 -101.732468 
L 281.496082 -99.784045 
L 282.729746 -97.835622 
L 284.125725 -95.887199 
L 285.662127 -93.938776 
L 287.299018 -91.990353 
L 288.972685 -90.04193 
L 290.583034 -88.093506 
L 291.980513 -86.145083 
L 292.965111 -84.19666 
L 293.31 -82.248237 
L 292.813429 -80.299814 
L 291.36662 -78.351391 
L 289.010986 -76.402968 
L 285.955256 -74.454545 
z
" id="mb2add96c29" style="stroke:#474747;stroke-width:1.5;"/>
    </defs>
    <g clip-path="url(#p94ea6e8638)">
     <use style="fill:#777777;stroke:#474747;stroke-width:1.5;" x="0" xlink:href="#mb2add96c29" y="288"/>
    </g>
   </g>
   <g id="PolyCollection_5">
    <defs>
     <path d="M 354.21 -74.454545 
L 305.49 -74.454545 
L 329.79687 -74.484802 
L 329.85 -74.515059 
L 329.85 -74.545316 
L 329.85 -74.575572 
L 329.85 -74.605829 
L 329.85 -74.636086 
L 329.85 -74.666343 
L 329.85 -74.696599 
L 329.85 -74.726856 
L 329.85 -74.757113 
L 329.85 -74.78737 
L 329.85 -74.817626 
L 329.85 -74.847883 
L 329.85 -74.87814 
L 329.85 -74.908397 
L 329.85 -74.938653 
L 329.85 -74.96891 
L 329.85 -74.999167 
L 329.85 -75.029424 
L 329.85 -75.05968 
L 329.85 -75.089937 
L 329.85 -75.120194 
L 329.85 -75.150451 
L 329.85 -75.180707 
L 329.85 -75.210964 
L 329.85 -75.241221 
L 329.85 -75.271478 
L 329.85 -75.301734 
L 329.85 -75.331991 
L 329.85 -75.362248 
L 329.85 -75.392505 
L 329.85 -75.422761 
L 329.85 -75.453018 
L 329.85 -75.483275 
L 329.85 -75.513532 
L 329.85 -75.543788 
L 329.85 -75.574045 
L 329.85 -75.604302 
L 329.85 -75.634559 
L 329.85 -75.664815 
L 329.85 -75.695072 
L 329.85 -75.725329 
L 329.85 -75.755586 
L 329.85 -75.785842 
L 329.85 -75.816099 
L 329.85 -75.846356 
L 329.85 -75.876613 
L 329.85 -75.906869 
L 329.85 -75.937126 
L 329.85 -75.967383 
L 329.85 -75.99764 
L 329.85 -76.027896 
L 329.85 -76.058153 
L 329.85 -76.08841 
L 329.85 -76.118667 
L 329.85 -76.148923 
L 329.85 -76.17918 
L 329.85 -76.209437 
L 329.85 -76.239694 
L 329.85 -76.26995 
L 329.85 -76.300207 
L 329.85 -76.330464 
L 329.85 -76.36072 
L 329.85 -76.390977 
L 329.85 -76.421234 
L 329.85 -76.451491 
L 329.85 -76.481747 
L 329.85 -76.512004 
L 329.85 -76.542261 
L 329.85 -76.572518 
L 329.85 -76.602774 
L 329.85 -76.633031 
L 329.85 -76.663288 
L 329.85 -76.693545 
L 329.85 -76.723801 
L 329.85 -76.754058 
L 329.85 -76.784315 
L 329.85 -76.814572 
L 329.85 -76.844828 
L 329.85 -76.875085 
L 329.85 -76.905342 
L 329.85 -76.935599 
L 329.85 -76.965855 
L 329.85 -76.996112 
L 329.85 -77.026369 
L 329.85 -77.056626 
L 329.85 -77.086882 
L 329.85 -77.117139 
L 329.85 -77.147396 
L 329.85 -77.177653 
L 329.85 -77.207909 
L 329.85 -77.238166 
L 329.85 -77.268423 
L 329.85 -77.29868 
L 329.85 -77.328936 
L 329.85 -77.359193 
L 329.85 -77.38945 
L 329.848948 -77.419707 
L 329.835763 -77.449963 
L 329.864237 -77.449963 
L 329.864237 -77.449963 
L 329.851052 -77.419707 
L 329.85 -77.38945 
L 329.85 -77.359193 
L 329.85 -77.328936 
L 329.85 -77.29868 
L 329.85 -77.268423 
L 329.85 -77.238166 
L 329.85 -77.207909 
L 329.85 -77.177653 
L 329.85 -77.147396 
L 329.85 -77.117139 
L 329.85 -77.086882 
L 329.85 -77.056626 
L 329.85 -77.026369 
L 329.85 -76.996112 
L 329.85 -76.965855 
L 329.85 -76.935599 
L 329.85 -76.905342 
L 329.85 -76.875085 
L 329.85 -76.844828 
L 329.85 -76.814572 
L 329.85 -76.784315 
L 329.85 -76.754058 
L 329.85 -76.723801 
L 329.85 -76.693545 
L 329.85 -76.663288 
L 329.85 -76.633031 
L 329.85 -76.602774 
L 329.85 -76.572518 
L 329.85 -76.542261 
L 329.85 -76.512004 
L 329.85 -76.481747 
L 329.85 -76.451491 
L 329.85 -76.421234 
L 329.85 -76.390977 
L 329.85 -76.36072 
L 329.85 -76.330464 
L 329.85 -76.300207 
L 329.85 -76.26995 
L 329.85 -76.239694 
L 329.85 -76.209437 
L 329.85 -76.17918 
L 329.85 -76.148923 
L 329.85 -76.118667 
L 329.85 -76.08841 
L 329.85 -76.058153 
L 329.85 -76.027896 
L 329.85 -75.99764 
L 329.85 -75.967383 
L 329.85 -75.937126 
L 329.85 -75.906869 
L 329.85 -75.876613 
L 329.85 -75.846356 
L 329.85 -75.816099 
L 329.85 -75.785842 
L 329.85 -75.755586 
L 329.85 -75.725329 
L 329.85 -75.695072 
L 329.85 -75.664815 
L 329.85 -75.634559 
L 329.85 -75.604302 
L 329.85 -75.574045 
L 329.85 -75.543788 
L 329.85 -75.513532 
L 329.85 -75.483275 
L 329.85 -75.453018 
L 329.85 -75.422761 
L 329.85 -75.392505 
L 329.85 -75.362248 
L 329.85 -75.331991 
L 329.85 -75.301734 
L 329.85 -75.271478 
L 329.85 -75.241221 
L 329.85 -75.210964 
L 329.85 -75.180707 
L 329.85 -75.150451 
L 329.85 -75.120194 
L 329.85 -75.089937 
L 329.85 -75.05968 
L 329.85 -75.029424 
L 329.85 -74.999167 
L 329.85 -74.96891 
L 329.85 -74.938653 
L 329.85 -74.908397 
L 329.85 -74.87814 
L 329.85 -74.847883 
L 329.85 -74.817626 
L 329.85 -74.78737 
L 329.85 -74.757113 
L 329.85 -74.726856 
L 329.85 -74.696599 
L 329.85 -74.666343 
L 329.85 -74.636086 
L 329.85 -74.605829 
L 329.85 -74.575572 
L 329.85 -74.545316 
L 329.85 -74.515059 
L 329.90313 -74.484802 
L 354.21 -74.454545 
z
" id="mfc933ac5a3" style="stroke:#474747;stroke-width:1.5;"/>
    </defs>
    <g clip-path="url(#p94ea6e8638)">
     <use style="fill:#e7bc72;stroke:#474747;stroke-width:1.5;" x="0" xlink:href="#mfc933ac5a3" y="288"/>
    </g>
   </g>
   <g id="PolyCollection_6">
    <defs>
     <path d="M 398.972159 -74.651577 
L 382.527841 -74.651577 
L 380.101723 -76.6 
L 377.953299 -78.548423 
L 376.430224 -80.496846 
L 375.758242 -82.445269 
L 375.972235 -84.393692 
L 376.921265 -86.342115 
L 378.339465 -88.290538 
L 379.94208 -90.238961 
L 381.501507 -92.187384 
L 382.879607 -94.135807 
L 384.020424 -96.08423 
L 384.92327 -98.032653 
L 385.615319 -99.981076 
L 386.133043 -101.929499 
L 386.512728 -103.877922 
L 386.78643 -105.826345 
L 386.980188 -107.774768 
L 387.113303 -109.723191 
L 387.199002 -111.671614 
L 387.246795 -113.620037 
L 387.265586 -115.56846 
L 387.265432 -117.516883 
L 387.256452 -119.465306 
L 387.245719 -121.413729 
L 387.235089 -123.362152 
L 387.222466 -125.310575 
L 387.206087 -127.258998 
L 387.188568 -129.207421 
L 387.177278 -131.155844 
L 387.180395 -133.104267 
L 387.201271 -135.05269 
L 387.234846 -137.001113 
L 387.268285 -138.949536 
L 387.285144 -140.897959 
L 387.270715 -142.846382 
L 387.216357 -144.794805 
L 387.121958 -146.743228 
L 386.996525 -148.691651 
L 386.856959 -150.640074 
L 386.724844 -152.588497 
L 386.621583 -154.53692 
L 386.563258 -156.485343 
L 386.557018 -158.433766 
L 386.599946 -160.382189 
L 386.679899 -162.330612 
L 386.777163 -164.279035 
L 386.866722 -166.227458 
L 386.922195 -168.175881 
L 386.922202 -170.124304 
L 386.85774 -172.072727 
L 386.736724 -174.02115 
L 386.58191 -175.969573 
L 386.421562 -177.917996 
L 386.276612 -179.866419 
L 386.15073 -181.814842 
L 386.028539 -183.763265 
L 385.882975 -185.711688 
L 385.687791 -187.660111 
L 385.428503 -189.608534 
L 385.106338 -191.556957 
L 384.734365 -193.50538 
L 384.330041 -195.453803 
L 383.910197 -197.402226 
L 383.491421 -199.350649 
L 383.09297 -201.299072 
L 382.736014 -203.247495 
L 382.435509 -205.195918 
L 382.188051 -207.144341 
L 381.964515 -209.092764 
L 381.714965 -211.041187 
L 381.385474 -212.98961 
L 380.938202 -214.938033 
L 380.363712 -216.886456 
L 379.679761 -218.834879 
L 378.919328 -220.783302 
L 378.116293 -222.731725 
L 377.296317 -224.680148 
L 376.47481 -226.628571 
L 375.658176 -228.576994 
L 374.843408 -230.525417 
L 374.015395 -232.47384 
L 373.147088 -234.422263 
L 372.208829 -236.370686 
L 371.187112 -238.319109 
L 370.103679 -240.267532 
L 369.02176 -242.215955 
L 368.032387 -244.164378 
L 367.226601 -246.112801 
L 366.669319 -248.061224 
L 366.39 -250.009647 
L 366.394785 -251.95807 
L 366.691789 -253.906494 
L 367.313473 -255.854917 
L 368.320938 -257.80334 
L 369.783552 -259.751763 
L 371.739843 -261.700186 
L 374.156786 -263.648609 
L 376.908664 -265.597032 
L 379.789785 -267.545455 
L 401.710215 -267.545455 
L 401.710215 -267.545455 
L 404.591336 -265.597032 
L 407.343214 -263.648609 
L 409.760157 -261.700186 
L 411.716448 -259.751763 
L 413.179062 -257.80334 
L 414.186527 -255.854917 
L 414.808211 -253.906494 
L 415.105215 -251.95807 
L 415.11 -250.009647 
L 414.830681 -248.061224 
L 414.273399 -246.112801 
L 413.467613 -244.164378 
L 412.47824 -242.215955 
L 411.396321 -240.267532 
L 410.312888 -238.319109 
L 409.291171 -236.370686 
L 408.352912 -234.422263 
L 407.484605 -232.47384 
L 406.656592 -230.525417 
L 405.841824 -228.576994 
L 405.02519 -226.628571 
L 404.203683 -224.680148 
L 403.383707 -222.731725 
L 402.580672 -220.783302 
L 401.820239 -218.834879 
L 401.136288 -216.886456 
L 400.561798 -214.938033 
L 400.114526 -212.98961 
L 399.785035 -211.041187 
L 399.535485 -209.092764 
L 399.311949 -207.144341 
L 399.064491 -205.195918 
L 398.763986 -203.247495 
L 398.40703 -201.299072 
L 398.008579 -199.350649 
L 397.589803 -197.402226 
L 397.169959 -195.453803 
L 396.765635 -193.50538 
L 396.393662 -191.556957 
L 396.071497 -189.608534 
L 395.812209 -187.660111 
L 395.617025 -185.711688 
L 395.471461 -183.763265 
L 395.34927 -181.814842 
L 395.223388 -179.866419 
L 395.078438 -177.917996 
L 394.91809 -175.969573 
L 394.763276 -174.02115 
L 394.64226 -172.072727 
L 394.577798 -170.124304 
L 394.577805 -168.175881 
L 394.633278 -166.227458 
L 394.722837 -164.279035 
L 394.820101 -162.330612 
L 394.900054 -160.382189 
L 394.942982 -158.433766 
L 394.936742 -156.485343 
L 394.878417 -154.53692 
L 394.775156 -152.588497 
L 394.643041 -150.640074 
L 394.503475 -148.691651 
L 394.378042 -146.743228 
L 394.283643 -144.794805 
L 394.229285 -142.846382 
L 394.214856 -140.897959 
L 394.231715 -138.949536 
L 394.265154 -137.001113 
L 394.298729 -135.05269 
L 394.319605 -133.104267 
L 394.322722 -131.155844 
L 394.311432 -129.207421 
L 394.293913 -127.258998 
L 394.277534 -125.310575 
L 394.264911 -123.362152 
L 394.254281 -121.413729 
L 394.243548 -119.465306 
L 394.234568 -117.516883 
L 394.234414 -115.56846 
L 394.253205 -113.620037 
L 394.300998 -111.671614 
L 394.386697 -109.723191 
L 394.519812 -107.774768 
L 394.71357 -105.826345 
L 394.987272 -103.877922 
L 395.366957 -101.929499 
L 395.884681 -99.981076 
L 396.57673 -98.032653 
L 397.479576 -96.08423 
L 398.620393 -94.135807 
L 399.998493 -92.187384 
L 401.55792 -90.238961 
L 403.160535 -88.290538 
L 404.578735 -86.342115 
L 405.527765 -84.393692 
L 405.741758 -82.445269 
L 405.069776 -80.496846 
L 403.546701 -78.548423 
L 401.398277 -76.6 
L 398.972159 -74.651577 
z
" id="m4907f451e0" style="stroke:#474747;stroke-width:1.5;"/>
    </defs>
    <g clip-path="url(#p94ea6e8638)">
     <use style="fill:#8aab51;stroke:#474747;stroke-width:1.5;" x="0" xlink:href="#m4907f451e0" y="288"/>
    </g>
   </g>
   <g id="patch_3">
    <path d="M 55.8 223.2 
L 55.8 10.8 
" style="fill:none;stroke:#ffffff;stroke-linecap:square;stroke-linejoin:miter;"/>
   </g>
   <g id="patch_4">
    <path d="M 421.2 223.2 
L 421.2 10.8 
" style="fill:none;stroke:#ffffff;stroke-linecap:square;stroke-linejoin:miter;"/>
   </g>
   <g id="patch_5">
    <path d="M 55.8 223.2 
L 421.2 223.2 
" style="fill:none;stroke:#ffffff;stroke-linecap:square;stroke-linejoin:miter;"/>
   </g>
   <g id="patch_6">
    <path d="M 55.8 10.8 
L 421.2 10.8 
" style="fill:none;stroke:#ffffff;stroke-linecap:square;stroke-linejoin:miter;"/>
   </g>
  </g>
 </g>
 <defs>
  <clipPath id="p94ea6e8638">
   <rect height="212.4" width="365.4" x="55.8" y="10.8"/>
  </clipPath>
 </defs>
</svg>
